<?xml version="1.0" encoding="UTF-8" standalone="no"?>
<!-- Created with Inkscape (http://www.inkscape.org/) -->

<svg
   width="169.10602mm"
   height="169.12996mm"
   viewBox="0 0 169.10602 169.12996"
   version="1.1"
   id="svg1"
   inkscape:version="1.4.3 (0d15f75042, 2025-12-25)"
   sodipodi:docname="logo-cronograma.svg"
   xmlns:inkscape="http://www.inkscape.org/namespaces/inkscape"
   xmlns:sodipodi="http://sodipodi.sourceforge.net/DTD/sodipodi-0.dtd"
   xmlns="http://www.w3.org/2000/svg"
   xmlns:svg="http://www.w3.org/2000/svg">
  <sodipodi:namedview
     id="namedview1"
     pagecolor="#505050"
     bordercolor="#eeeeee"
     borderopacity="1"
     inkscape:showpageshadow="0"
     inkscape:pageopacity="0"
     inkscape:pagecheckerboard="0"
     inkscape:deskcolor="#505050"
     inkscape:document-units="mm"
     inkscape:zoom="0.67170314"
     inkscape:cx="330.50314"
     inkscape:cy="369.21072"
     inkscape:window-width="1920"
     inkscape:window-height="963"
     inkscape:window-x="0"
     inkscape:window-y="0"
     inkscape:window-maximized="1"
     inkscape:current-layer="layer1" />
  <defs
     id="defs1" />
  <g
     inkscape:label="Camada 1"
     inkscape:groupmode="layer"
     id="layer1"
     transform="translate(-17.613473,-50.840608)">
    <path
       style="fill:#0b0c1e;fill-opacity:1;stroke-width:0.141054"
       d="m 48.239337,219.8879 c -3.552479,-0.10427 -4.805108,-0.29629 -7.836292,-1.20121 -5.063957,-1.5118 -9.420119,-4.13692 -13.191073,-7.94926 -2.768517,-2.79889 -4.635209,-5.42894 -6.37915,-8.9878 -1.228283,-2.50656 -1.908613,-4.41318 -2.444204,-6.84987 -0.847539,-3.85589 -0.797348,0.10796 -0.756463,-59.74208 l 0.03738,-54.72828 0.460181,-2.374845 c 1.056438,-5.451922 3.45819,-10.811842 6.55623,-14.631344 1.146052,-1.412942 3.556465,-3.829136 4.933203,-4.94504 2.432243,-1.971432 6.033558,-4.094853 8.841379,-5.213086 2.940325,-1.171003 6.667996,-2.009553 10.123933,-2.277408 1.263589,-0.09794 19.136526,-0.146854 53.655279,-0.146854 56.48505,0 53.91311,-0.03509 58.06537,0.79208 2.49329,0.49668 5.67286,1.594569 7.95598,2.747156 10.48778,5.294512 17.01674,14.744863 18.28944,26.473044 0.12784,1.178191 0.16858,14.521455 0.16858,55.222597 0,57.76519 0.0407,54.47183 -0.72147,58.37444 -0.92112,4.71636 -3.52707,10.14007 -6.69661,13.9375 -2.22878,2.67031 -5.15562,5.24085 -7.75843,6.81397 -4.18501,2.52938 -8.10367,3.9421 -12.64623,4.5591 -1.31697,0.17887 -104.842435,0.29788 -110.657038,0.12719 z m 16.976256,-33.95191 c 6.974985,-0.82133 13.470123,-3.44978 19.509052,-7.89492 6.729596,-4.95354 13.201884,-13.32793 19.335005,-25.01726 5.30757,-10.11589 5.86785,-11.14671 8.17526,-15.04145 7.34246,-12.39348 15.49435,-23.57371 23.4759,-32.19693 3.46044,-3.73865 7.99068,-8.124512 10.83562,-10.490306 1.35572,-1.127397 1.98923,-1.998334 2.37159,-3.26041 0.79903,-2.637308 -0.45179,-5.458505 -2.96974,-6.698237 -0.625,-0.307725 -1.03283,-0.398097 -1.97947,-0.438619 -2.36953,-0.101437 -2.87947,0.170116 -6.34451,3.37861 -8.46914,7.842114 -15.34066,15.570962 -22.34341,25.131132 -4.86253,6.63835 -6.47264,9.07934 -12.66976,19.20786 -1.26719,2.0711 -3.038594,5.28228 -5.41474,9.81578 -4.664937,8.90036 -5.855173,11.00381 -8.391367,14.8296 -7.606879,11.47479 -16.164012,17.08145 -26.830406,17.57937 -2.688847,0.12551 -3.247668,0.26321 -4.414504,1.08778 -1.526419,1.07867 -2.347479,2.70035 -2.347479,4.6365 0,1.43766 0.326716,2.42839 1.141733,3.46208 0.668464,0.84784 1.859503,1.67204 2.772004,1.91826 0.911445,0.24592 3.963269,0.2415 6.089222,-0.009 z m 78.672207,0.004 c 1.53163,-0.46213 2.99553,-1.85324 3.61297,-3.43333 0.24078,-0.61619 0.31827,-1.10719 0.32087,-2.03304 0.003,-1.12684 -0.0367,-1.30207 -0.5189,-2.28017 -0.65439,-1.32747 -1.83879,-2.48256 -2.9873,-2.91336 -0.78404,-0.29412 -0.8126,-0.29448 -24.1909,-0.29448 H 96.718627 l -1.954184,2.04362 c -2.97578,3.11195 -5.836112,5.49386 -9.34892,7.78517 -0.921672,0.60119 -1.735998,1.14608 -1.809605,1.21089 -0.07361,0.0648 13.308215,0.11783 29.737382,0.11783 25.57738,0 29.96798,-0.0292 30.5445,-0.20316 z m -67.186374,-23.4981 c 2.611055,-2.28243 5.713072,-6.07142 7.799877,-9.52722 l 0.321574,-0.53254 -12.797658,0.0382 -12.797658,0.0382 -0.871014,0.45626 c -1.111007,0.58198 -2.161453,1.63511 -2.672673,2.6795 -0.363189,0.74195 -0.400803,0.95799 -0.400803,2.30176 0,1.32608 0.04139,1.57157 0.391223,2.3205 0.726139,1.5545 1.793799,2.56375 3.243315,3.06588 0.670352,0.23221 1.403139,0.25416 8.626965,0.25838 l 7.89439,0.005 z m 67.271884,0.87662 c 1.30859,-0.38814 2.64735,-1.57287 3.34315,-2.9585 0.68921,-1.37251 0.66947,-3.34853 -0.0482,-4.81906 -0.47252,-0.96825 -1.71839,-2.19731 -2.73453,-2.69763 l -0.78142,-0.38475 -16.34146,-0.0336 -16.34146,-0.0336 -1.60634,3.07017 c -1.68171,3.21423 -4.17245,7.60178 -4.39296,7.73841 -0.0708,0.0439 -0.12874,0.13958 -0.12874,0.21267 0,0.0824 7.27172,0.1329 19.13338,0.1329 17.16191,0 19.21223,-0.0234 19.89854,-0.22695 z M 91.702321,139.99495 c 0.871127,-1.61036 4.635184,-8.31661 5.391554,-9.60592 l 0.270451,-0.461 -19.138819,0.0373 -19.138821,0.0373 -0.680734,0.33879 c -0.995251,0.49531 -2.091918,1.56829 -2.641456,2.58439 -0.464999,0.85977 -0.481425,0.94317 -0.481425,2.44372 0,1.39218 0.03946,1.63799 0.379784,2.36605 0.705937,1.51023 2.277408,2.85497 3.740222,3.20061 0.290878,0.0687 7.543963,0.13134 16.117989,0.13914 l 15.589131,0.0142 z m 51.726119,0.93563 c 0.4106,-0.0874 1.01618,-0.28519 1.34575,-0.4395 0.90028,-0.42151 2.04887,-1.6369 2.59139,-2.74213 0.43675,-0.88975 0.47124,-1.05957 0.46022,-2.26701 -0.011,-1.20636 -0.0511,-1.38461 -0.52863,-2.35344 -0.64858,-1.31567 -1.83755,-2.47286 -2.98173,-2.90205 -0.76752,-0.28789 -0.9993,-0.29444 -10.41913,-0.29444 h -9.63417 l -2.59722,4.06048 c -2.53761,3.96732 -4.32657,6.87064 -4.32657,7.02167 0,0.15966 25.3287,0.0785 26.09009,-0.0836 z m -38.56848,-23.0143 c 0.64065,-0.97235 5.52193,-7.83076 6.51627,-9.15564 0.48985,-0.6527 0.89063,-1.24058 0.89063,-1.30642 0,-0.0658 -11.77969,-0.11969 -26.177111,-0.11969 -28.744653,0 -26.865329,-0.0567 -28.23232,0.85111 -0.976233,0.64828 -1.693088,1.42876 -2.158059,2.34962 -0.389335,0.77106 -0.416299,0.92962 -0.416299,2.44864 0,1.56242 0.01765,1.65808 0.464084,2.51528 0.563414,1.08179 1.511641,2.02223 2.558903,2.53787 l 0.780628,0.38437 22.539943,0.0706 c 12.396968,0.0388 22.603331,0.0657 22.680821,0.0598 0.0775,-0.006 0.32611,-0.29195 0.55251,-0.63556 z"
       id="path1" />
  </g>
</svg>
